<?xml version="1.0" encoding="UTF-8"?>
<svg width="14px" height="14px" viewBox="0 0 14 14" version="1.1" xmlns="http://www.w3.org/2000/svg" xmlns:xlink="http://www.w3.org/1999/xlink">
    <!-- Generator: Sketch 41.2 (35397) - http://www.bohemiancoding.com/sketch -->
    <title>Topic/Search/Back</title>
    <desc>Created with Sketch.</desc>
    <defs></defs>
    <g id="首页" stroke="none" stroke-width="1" fill="none" fill-rule="evenodd">
        <g id="所有群成员列表" transform="translate(-24.000000, -35.000000)" fill="#333333">
            <g id="Nav-Bar/无右">
                <g id="Topic/Search/Back" transform="translate(24.000000, 35.000000)">
                    <path d="M13.3414069,6.15832209 L1.78952982,6.15832209 L7.05770347,0.887651354 C7.25710441,0.688163085 7.25284365,0.360676837 7.04818656,0.156124525 C6.84354695,-0.0484103298 6.51606068,-0.0525139324 6.31665973,0.146974336 L0.191196425,6.27551098 C0.157162577,6.30388707 0.126795805,6.33666362 0.100846964,6.37300249 C0.0317839297,6.46469655 -0.00177844306,6.57504025 7.25602912e-05,6.6857681 C-0.0021451421,6.81877774 0.0465744142,6.9513159 0.146755109,7.05149659 L6.31669465,13.224492 C6.51609559,13.4239977 6.84358186,13.4198767 7.04822147,13.2153593 C7.25287856,13.0108244 7.25713933,12.6833382 7.05773838,12.4838325 L1.78233538,7.20596728 L13.3414069,7.20596728 C13.623439,7.20596728 13.8520717,6.97151967 13.8520717,6.68218835 C13.8520717,6.39285702 13.623439,6.15832209 13.3414069,6.15832209 Z" id="Shape"></path>
                </g>
            </g>
        </g>
    </g>
</svg>