<?xml version="1.0" encoding="UTF-8"?>
<svg width="25px" height="24px" viewBox="0 0 25 24" version="1.1" xmlns="http://www.w3.org/2000/svg" xmlns:xlink="http://www.w3.org/1999/xlink">
    <!-- Generator: Sketch 41.2 (35397) - http://www.bohemiancoding.com/sketch -->
    <title>Publish/Edit/Camera</title>
    <desc>Created with Sketch.</desc>
    <defs>
        <path d="M0,4.40749084 C0,3.29878427 0.891700172,2.4 1.99541843,2.4 L5.4,2.4 L6.75,0.6 L14.85,0.6 L16.2,2.4 L19.6045816,2.4 C20.7066207,2.4 21.6,3.29475415 21.6,4.40749084 L21.6,15.9925092 C21.6,17.1012157 20.6993748,18 19.6066406,18 L1.99335938,18 C0.892457391,18 0,17.1052458 0,15.9925092 L0,4.40749084 Z" id="path-1"></path>
        <mask id="mask-2" maskContentUnits="userSpaceOnUse" maskUnits="objectBoundingBox" x="0" y="0" width="21.6" height="17.4" fill="white">
            <use xlink:href="#path-1"></use>
        </mask>
        <circle id="path-3" cx="10.8" cy="10.2" r="4.8"></circle>
        <mask id="mask-4" maskContentUnits="userSpaceOnUse" maskUnits="objectBoundingBox" x="0" y="0" width="9.6" height="9.6" fill="white">
            <use xlink:href="#path-3"></use>
        </mask>
    </defs>
    <g id="发布" stroke="none" stroke-width="1" fill="none" fill-rule="evenodd">
        <g id="发布界面-选择分类" transform="translate(-175.000000, -631.000000)">
            <g id="Bottom-Bar/Publish" transform="translate(0.000000, 618.000000)">
                <g id="Publish/Edit/Camera" transform="translate(175.500000, 13.000000)">
                    <g id="camera" transform="translate(1.200000, 2.400000)">
                        <use id="Rectangle" stroke="#333333" mask="url(#mask-2)" stroke-width="2" xlink:href="#path-1"></use>
                        <use id="Oval" stroke="#333333" mask="url(#mask-4)" stroke-width="2" xlink:href="#path-3"></use>
                        <circle id="Oval-2" fill="#333333" cx="17.85" cy="6.15" r="0.75"></circle>
                    </g>
                </g>
            </g>
        </g>
    </g>
</svg>