<?xml version="1.0" encoding="UTF-8"?>
<svg width="20px" height="20px" viewBox="0 0 20 20" version="1.1" xmlns="http://www.w3.org/2000/svg" xmlns:xlink="http://www.w3.org/1999/xlink">
    <!-- Generator: Sketch 41.2 (35397) - http://www.bohemiancoding.com/sketch -->
    <title>Topic/Chat/Delete@1x</title>
    <desc>Created with Sketch.</desc>
    <defs></defs>
    <g id="首页" stroke="none" stroke-width="1" fill="none" fill-rule="evenodd">
        <g id="聊天界面-功能展示-试听语音" transform="translate(-324.000000, -459.000000)" fill="#B3B3B3">
            <g id="按住说话" transform="translate(0.000000, 427.000000)">
                <g id="删除" transform="translate(310.000000, 18.000000)">
                    <g id="Topic/Chat/Delete" transform="translate(14.000000, 14.000000)">
                        <g id="垃圾桶" transform="translate(1.000000, 1.000000)">
                            <g id="Group">
                                <path d="M17.1879095,2.38251345 C17.172,2.07816381 17.0027164,1.88740342 16.7052323,1.83318337 C16.4941834,1.79471883 16.2777433,1.76765281 16.0636357,1.76710269 C14.1670122,1.76212958 12.2703667,1.76422005 10.3737213,1.76419804 C9.63983619,1.76419804 9.63114425,1.76413203 9.63598533,1.03924694 C9.63833985,0.685364303 9.5859022,0.364136919 9.24605868,0.186095355 C8.83929829,-0.027 8.40250122,-0.033007335 7.99928362,0.168843521 C7.60394377,0.366733496 7.54177995,0.747264059 7.59533985,1.15486064 C7.60610024,1.23676284 7.5901467,1.32233985 7.60227139,1.40388998 C7.64432274,1.68696088 7.53024939,1.77082152 7.24555012,1.77044743 C5.79897066,1.768511 4.35234719,1.78939364 2.90572372,1.79843765 C2.17520538,1.80301467 1.44453301,1.79218826 0.714124694,1.80257457 C0.330623472,1.80803178 0.0230611247,1.93022494 0.00886797066,2.39413203 C-0.0050391198,2.84886308 0.251141809,3.06235452 0.664371638,3.11991932 C0.844107579,3.14496088 1.03304156,3.15112225 1.21196333,3.12531051 C1.61419071,3.06728362 1.74144499,3.19209535 1.73605379,3.62418337 C1.70993399,5.72014914 1.72425917,7.81659902 1.72425917,9.91289487 C1.72425917,11.992533 1.72311491,14.0721932 1.72469927,16.1518313 C1.72562347,17.3485232 2.33135208,17.9757946 3.52606357,17.9785012 C6.92003178,17.9862249 10.314022,17.9853447 13.7079902,17.9789853 C14.903846,17.9767408 15.502335,17.3627824 15.5072861,16.1535257 C15.5130513,14.7393814 15.5086284,13.3252152 15.5086284,11.9110489 C15.5086284,9.14928117 15.5195648,6.38742543 15.4971858,3.62583374 C15.493709,3.19750856 15.6130856,3.06820782 16.0188778,3.12542054 C16.2834866,3.16271883 16.555599,3.13552078 16.8022298,3.02338386 C17.0692372,2.90202689 17.203357,2.67781907 17.1879095,2.38251345 L17.1879095,2.38251345 Z M12.7605037,16.5479633 C9.94775061,16.5580636 7.13499756,16.5723447 4.3222445,16.5816308 C3.39407824,16.5846895 3.10764059,16.2932567 3.10700244,15.3571907 C3.10568215,13.4094499 3.10660636,11.461709 3.10660636,9.51396822 C3.10660636,7.53293399 3.11439609,5.55185575 3.09901467,3.57093154 C3.09641809,3.23689731 3.16032029,3.11950122 3.52604156,3.12112958 C6.92203423,3.13620293 10.3181369,3.13536675 13.7141296,3.12178973 C14.0538191,3.12042543 14.1171051,3.22855746 14.1167311,3.54102689 C14.112066,7.41965281 14.1235746,11.2983007 14.1245208,15.1769267 C14.1247848,16.240401 13.8094548,16.5442005 12.7605037,16.5479633 L12.7605037,16.5479633 Z" id="Shape"></path>
                                <path d="M7.3458044,9.94519804 C7.34569438,11.3203716 7.35126161,12.6955672 7.3431198,14.0706748 C7.33959902,14.6659731 6.87714425,14.9971907 6.41997066,14.7495477 C6.12024205,14.5871956 6.08587042,14.3075134 6.08681663,14.0022836 C6.09159169,12.4590587 6.08901711,10.9158117 6.08899511,9.37256479 C6.08899511,8.22659413 6.08870905,7.08062347 6.08910513,5.93465281 C6.08932518,5.31400489 6.29755746,5.01799511 6.72788509,5.02402445 C7.15218337,5.02996577 7.3453643,5.32016626 7.34569438,5.95720782 C7.34637653,7.28656724 7.34589242,8.61588264 7.3458044,9.94519804 L7.3458044,9.94519804 Z M11.3656357,9.8675868 C11.3656357,11.3477677 11.3673741,12.8279267 11.3647555,14.3081076 C11.3637433,14.8777042 11.0914548,15.2249193 10.6681027,15.2126186 C10.2577335,15.2006919 9.99935208,14.8696064 9.99888998,14.3289022 C9.99638142,11.3519267 9.99627139,8.3749511 9.99893399,5.39797555 C9.9994401,4.83348411 10.2352885,4.54073105 10.6708093,4.53516381 C11.1180807,4.52944254 11.3641834,4.84105379 11.3649756,5.42708802 C11.366978,6.90722494 11.3656357,8.38740587 11.3656357,9.8675868 L11.3656357,9.8675868 Z" id="Shape"></path>
                            </g>
                        </g>
                    </g>
                </g>
            </g>
        </g>
    </g>
</svg>