<?xml version="1.0" encoding="UTF-8"?>
<svg width="14px" height="14px" viewBox="0 0 14 14" version="1.1" xmlns="http://www.w3.org/2000/svg" xmlns:xlink="http://www.w3.org/1999/xlink">
    <!-- Generator: Sketch 41.2 (35397) - http://www.bohemiancoding.com/sketch -->
    <title>Topic/Topic Details/good_gray</title>
    <desc>Created with Sketch.</desc>
    <defs></defs>
    <g id="首页" stroke="none" stroke-width="1" fill="none" fill-rule="evenodd">
        <g id="话题详情-精选评论" transform="translate(-331.000000, -321.000000)" stroke-width="0.300000012" stroke="#B3B3B3" fill="#B3B3B3">
            <g id="精选评论模块" transform="translate(0.000000, 18.000000)">
                <g id="Group-5" transform="translate(12.000000, 232.000000)">
                    <g id="Group-7" transform="translate(319.000000, 71.000000)">
                        <g id="Topic/Topic-Details/good">
                            <g id="Topic/Topic-Details/good_gray" transform="translate(7.000000, 7.000000) rotate(-180.000000) translate(-7.000000, -7.000000) ">
                                <path d="M0.124444326,5.15279672 C0.124444326,5.62894282 0.288173266,5.99206869 0.608325656,6.20306845 C0.414085548,6.31308055 0.127882204,6.85711131 0.127882204,7.3375682 C0.147220268,8.13128828 0.915156269,8.71959516 2.07458063,8.71959516 L5.14891647,8.71959516 C4.6224914,10.1523308 4.72176013,12.0844183 5.38184614,13.1157817 C5.77933735,13.7363186 6.25678609,13.8755527 6.58811158,13.8755527 C7.703703,13.8755527 7.74023045,12.8007861 7.74023045,12.4350818 C7.74023045,11.2120433 7.91683801,10.6546907 8.13687563,10.140728 C8.31134794,9.80811328 9.37923879,8.71400861 10.4703353,8.71400861 L12.5150133,8.71400861 C13.3044494,8.71400861 13.8768427,8.05307656 13.8755535,7.11238719 L13.3452608,1.51681099 C13.2812303,0.654763074 12.8579416,0.13264878 12.0087857,0.132635351 C12.0087857,0.132635351 11.5859402,0.129197473 11.2692122,0.129197473 C11.107632,0.129197473 10.9567951,0.130486677 10.8673968,0.132635351 C10.6056749,0.141230046 10.3899615,0.308826599 10.1991458,0.449779598 C10.0642091,0.549048325 9.95720518,0.63542501 9.86008512,0.63542501 C9.81669534,0.63542501 9.56872496,0.493182807 9.26447276,0.363832647 C8.95420427,0.232776977 8.46217141,0.124040656 7.99159842,0.124027227 L3.71532134,0.124027227 C2.28172621,0.124027227 1.59329114,0.661195666 1.59329114,1.55676289 C1.59329114,1.82146607 1.6543269,1.97833268 1.80128276,2.18331616 C1.22585449,2.32126101 0.715343038,2.68309767 0.715343038,3.30707253 C0.715343038,3.53869956 0.824495665,3.91084986 0.973613624,4.00968885 C0.692137362,4.08145455 0.123598285,4.58339817 0.124457755,5.15278329 L0.124444326,5.15279672 Z M10.8884404,0.696474203 C11.1445623,0.688309243 12.0633218,0.696474203 12.0693515,0.696474203 C12.398958,0.696474203 12.6911642,1.00717243 12.7655218,1.42444487 L13.2958145,7.24133447 C13.2958145,7.6766692 12.9455806,8.15366135 12.4780292,8.15366135 L12.4780292,8.15066663 L10.4703085,8.14465035 C10.4359297,8.14465035 10.4019806,8.14894769 10.3680316,8.1502369 L10.3680316,1.03427258 C10.4608543,0.969382629 10.5476607,0.906641355 10.6095425,0.861089472 C10.69463,0.798348198 10.8368588,0.702517348 10.8884404,0.696501062 L10.8884404,0.696474203 Z M1.51205784,4.3904607 L1.58985326,4.3904607 L1.58254777,3.87134112 C1.52024966,3.84770571 1.29032814,3.77851841 1.2898984,3.32729692 C1.2898984,2.84384533 1.92504636,2.64960522 2.46006613,2.64960522 L2.45877693,2.64960522 L2.46780136,2.15498052 C2.24992584,2.10642049 2.17171411,1.916048 2.17214385,1.6117958 C2.17214385,1.07978417 2.60445701,0.696460774 3.72735391,0.696460774 L8.15578396,0.696460774 C8.36764319,0.696460774 8.79779425,0.819794648 9.0457512,0.939690644 C9.2795269,1.05271088 9.65425561,1.26414038 9.78360577,1.33418715 L9.78360577,8.24432195 C8.67016303,8.5528715 7.75096039,9.51332867 7.51890363,9.95681494 C7.26664933,10.5434029 7.14030731,11.1566344 7.14030731,12.5017041 C7.14030731,13.1699551 6.89492877,13.2597562 6.63365004,13.2597562 C6.40243931,13.2597562 6.03502953,13.0049235 5.84938412,12.7144228 C5.29975337,11.856256 5.17126268,10.0075236 5.85497067,8.62291827 L5.97270456,8.14376402 L2.04793707,8.14462349 C1.37969954,8.10809604 0.708024118,7.83478473 0.708024118,7.34187897 L0.712751201,7.1876042 C0.710589098,7.18115818 0.729081121,6.76044785 0.952972927,6.57480244 C1.14076701,6.41880873 1.29289312,6.41365191 1.29289312,6.41365191 L1.29719046,5.90269729 C1.29719046,5.90269729 1.07072025,5.87218612 0.952543192,5.79096625 C0.774633005,5.66892159 0.693842872,5.43772429 0.703297036,5.18504025 C0.714899874,4.8653176 1.20909484,4.39044727 1.51205784,4.3904607 L1.51205784,4.3904607 Z" id="Shape"></path>
                            </g>
                        </g>
                    </g>
                </g>
            </g>
        </g>
    </g>
</svg>