<?xml version="1.0" encoding="UTF-8"?>
<svg width="16px" height="16px" viewBox="0 0 16 16" version="1.1" xmlns="http://www.w3.org/2000/svg" xmlns:xlink="http://www.w3.org/1999/xlink">
    <!-- Generator: Sketch 41.2 (35397) - http://www.bohemiancoding.com/sketch -->
    <title>Topic/Topic Details/good</title>
    <desc>Created with Sketch.</desc>
    <defs></defs>
    <g id="Symbols" stroke="none" stroke-width="1" fill="none" fill-rule="evenodd">
        <g id="Topic/Topic-Details/good16x16" stroke="#2582F3" stroke-width="0.2" fill="#2582F3">
            <g id="Topic/Topic-Details/good" transform="translate(8.000000, 8.000000) rotate(-180.000000) translate(-8.000000, -8.000000) translate(0.000000, -0.000000)">
                <path d="M0.142222087,5.88891054 C0.142222087,6.43307751 0.329340876,6.8480785 0.695229321,7.08922109 C0.473240627,7.2149492 0.14615109,7.83669865 0.14615109,8.38579222 C0.168251734,9.29290089 1.04589288,9.96525161 2.37094929,9.96525161 L5.88447597,9.96525161 C5.28284731,11.6026638 5.39629729,13.8107637 6.1506813,14.9894648 C6.60495697,15.6986499 7.15061267,15.8577745 7.52927038,15.8577745 C8.804232,15.8577745 8.84597766,14.6294698 8.84597766,14.2115221 C8.84597766,12.8137638 9.04781486,12.1767894 9.29928643,11.5894034 C9.49868336,11.2092723 10.7191301,9.95886698 11.9660975,9.95886698 L14.3028723,9.95886698 C15.2050851,9.95886698 15.8592488,9.20351607 15.8577754,8.1284425 L15.2517266,1.73349827 C15.178549,0.748300656 14.6947904,0.151598606 13.7243266,0.151583258 C13.7243266,0.151583258 13.2410745,0.147654255 12.8790997,0.147654255 C12.6944365,0.147654255 12.5220515,0.149127631 12.4198821,0.151583258 C12.1207713,0.161405767 11.8742417,0.352944685 11.6561667,0.514033826 C11.5019533,0.6274838 11.3796631,0.726200012 11.2686687,0.726200012 C11.2190804,0.726200012 10.9356857,0.563637494 10.5879689,0.41580874 C10.2333763,0.266030831 9.67105304,0.14176075 9.13325534,0.141745402 L4.24608153,0.141745402 C2.60768709,0.141745402 1.82090416,0.75565219 1.82090416,1.77915759 C1.82090416,2.0816755 1.89065931,2.26095163 2.05860886,2.49521846 C1.40097656,2.65286973 0.817534901,3.06639734 0.817534901,3.77951146 C0.817534901,4.04422807 0.94228076,4.46954269 1.11270128,4.58250154 C0.791014128,4.66451949 0.141255183,5.23816934 0.142237434,5.88889519 L0.142222087,5.88891054 Z M12.4439319,0.795970518 C12.7366426,0.786639135 13.7866534,0.795970518 13.7935446,0.795970518 C14.1702378,0.795970518 14.5041877,1.1510542 14.5891677,1.627937 L15.1952165,8.27581082 C15.1952165,8.77333623 14.7949493,9.31847011 14.2606048,9.31847011 L14.2606048,9.31504758 L11.9660668,9.30817183 C11.9267768,9.30817183 11.8879779,9.31308308 11.849179,9.31455646 L11.849179,1.1820258 C11.9552621,1.10786586 12.0544694,1.03616155 12.1251915,0.984102253 C12.2224343,0.91239794 12.3849815,0.80287697 12.4439319,0.796001213 L12.4439319,0.795970518 Z M1.7280661,5.01766937 L1.81697515,5.01766937 L1.80862602,4.42438985 C1.73742818,4.39737795 1.47466073,4.31830676 1.4741696,3.80262506 C1.4741696,3.25010895 2.20005299,3.02812025 2.81150415,3.02812025 L2.81003077,3.02812025 L2.82034441,2.46283488 C2.57134381,2.40733771 2.48195898,2.18976914 2.48245011,1.84205234 C2.48245011,1.23403905 2.97652229,0.79595517 4.25983304,0.79595517 L9.32089595,0.79595517 C9.56302079,0.79595517 10.054622,0.936908169 10.3380014,1.07393216 C10.6051736,1.20309815 11.033435,1.44473186 11.1812637,1.52478531 L11.1812637,9.42208223 C9.90875774,9.77471029 8.85824045,10.8723756 8.59303272,11.3792171 C8.30474209,12.0496033 8.16035121,12.7504393 8.16035121,14.2876619 C8.16035121,15.0513773 7.87991859,15.1540071 7.58131433,15.1540071 C7.3170735,15.1540071 6.8971766,14.8627697 6.68501042,14.530769 C6.05686099,13.5500068 5.91001449,11.4371699 6.69139505,9.85476373 L6.82594807,9.30715888 L2.34049951,9.30814113 C1.57679947,9.26639547 0.809170421,8.95403969 0.809170421,8.39071883 L0.814572801,8.2144048 C0.812101826,8.20703792 0.833235567,7.72622612 1.08911192,7.51405993 C1.30373373,7.3357814 1.47759213,7.3298879 1.47759213,7.3298879 L1.48250339,6.74593976 C1.48250339,6.74593976 1.22368028,6.71106985 1.08862079,6.61824715 C0.885294863,6.47876753 0.792963282,6.21454204 0.803768041,5.92576029 C0.817028428,5.56036297 1.38182267,5.01765402 1.7280661,5.01766937 L1.7280661,5.01766937 Z" id="Shape"></path>
            </g>
        </g>
    </g>
</svg>