<?xml version="1.0" encoding="UTF-8" standalone="no"?>
<svg width="29px" height="32px" viewBox="0 0 29 32" version="1.1" xmlns="http://www.w3.org/2000/svg" xmlns:xlink="http://www.w3.org/1999/xlink">
    <!-- Generator: Sketch 41.2 (35397) - http://www.bohemiancoding.com/sketch -->
    <title>消息</title>
    <desc>Created with Sketch.</desc>
    <defs></defs>
    <g id="消息" stroke="none" stroke-width="1" fill="none" fill-rule="evenodd">
        <g id="消息列表－验证" transform="translate(-24.000000, -137.000000)" fill="#FFFFFF">
            <g id="Topic/Chat-Detail/用户列表" transform="translate(0.000000, 119.000000)">
                <g id="1-1" transform="translate(12.000000, 8.000000)">
                    <g id="消息" transform="translate(12.000000, 10.000000)">
                        <path d="M27.4717613,23.5966759 L27.7022322,23.7030471 C26.6117696,23.0734988 25.9369792,21.9128592 25.9293791,20.6537396 L25.9293791,13.5623269 C25.7685661,8.29120355 21.9372505,3.85338628 16.7459996,2.92520775 L16.7459996,2.499723 C16.7459996,1.11916411 15.6268355,8.45348514e-17 14.2462766,0 C12.8657177,-8.45348514e-17 11.7465536,1.11916411 11.7465536,2.499723 L11.7465536,2.74792244 C6.5553026,3.67610097 2.72398703,8.11391824 2.56317406,13.3850416 L2.56317406,20.4764543 C2.55557398,21.7355738 1.8807835,22.8962135 0.790320875,23.5257618 L1.02079178,23.4193906 C0.418562266,23.6618759 0.0203542745,24.2417226 0.0102654688,24.8908587 C-0.0395348969,25.3761483 0.130504088,25.8582511 0.473737308,26.2049167 C0.816970528,26.5515822 1.29735759,26.7264097 1.78311866,26.6814404 L26.8158057,26.6814404 C27.2514329,26.6909375 27.6727488,26.525732 27.9858122,26.22266 C28.2988756,25.919588 28.4776549,25.5038502 28.4822876,25.068144 C28.4721988,24.4190079 28.0739908,23.8391612 27.4717613,23.5966759 L27.4717613,23.5966759 Z M14.2994622,32 C16.2577017,32 17.8451685,30.4125332 17.8451685,28.4542936 L10.7537558,28.4542936 C10.7537558,29.3946734 11.1273202,30.2965377 11.7922691,30.9614866 C12.4572181,31.6264356 13.3590824,32 14.2994622,32 Z" id="Shape"></path>
                    </g>
                </g>
            </g>
        </g>
    </g>
</svg>