<?xml version="1.0" encoding="UTF-8"?>
<svg width="64px" height="64px" viewBox="0 0 64 64" version="1.1" xmlns="http://www.w3.org/2000/svg" xmlns:xlink="http://www.w3.org/1999/xlink">
    <!-- Generator: Sketch 41.2 (35397) - http://www.bohemiancoding.com/sketch -->
    <title>Topic/Chat/play@1x</title>
    <desc>Created with Sketch.</desc>
    <defs>
        <rect id="path-1" x="0" y="30" width="375" height="637"></rect>
        <filter x="-50%" y="-50%" width="200%" height="200%" filterUnits="objectBoundingBox" id="filter-2">
            <feOffset dx="0" dy="-2" in="SourceAlpha" result="shadowOffsetOuter1"></feOffset>
            <feGaussianBlur stdDeviation="2" in="shadowOffsetOuter1" result="shadowBlurOuter1"></feGaussianBlur>
            <feColorMatrix values="0 0 0 0 0   0 0 0 0 0   0 0 0 0 0  0 0 0 0.2 0" type="matrix" in="shadowBlurOuter1"></feColorMatrix>
        </filter>
        <circle id="path-3" cx="50" cy="50" r="50"></circle>
        <mask id="mask-4" maskContentUnits="userSpaceOnUse" maskUnits="objectBoundingBox" x="0" y="0" width="100" height="100" fill="white">
            <use xlink:href="#path-3"></use>
        </mask>
    </defs>
    <g id="首页" stroke="none" stroke-width="1" fill="none" fill-rule="evenodd">
        <g id="聊天界面-功能展示-试听语音暂停" transform="translate(-156.000000, -495.000000)">
            <g id="Group-5" transform="translate(12.000000, 12.000000)" fill="#FFFFFF">
                <g id="纯文本话题" transform="translate(0.000000, 60.809595)">
                    <rect id="Rectangle" x="0" y="0" width="351" height="563.190405"></rect>
                </g>
            </g>
            <rect id="半透明遮罩" fill-opacity="0.600000024" fill="#000000" x="0" y="0" width="375" height="667"></rect>
            <g id="Rectangle-7">
                <use fill="black" fill-opacity="1" filter="url(#filter-2)" xlink:href="#path-1"></use>
                <use fill="#F5F5F5" fill-rule="evenodd" xlink:href="#path-1"></use>
            </g>
            <g id="重新播放" transform="translate(0.000000, 427.000000)">
                <rect id="Rectangle-11" fill="#FFFFFF" x="0" y="0" width="375" height="240"></rect>
                <g id="按住说话" transform="translate(138.000000, 50.000000)">
                    <use id="Oval" stroke="#E6E6E6" mask="url(#mask-4)" stroke-width="4" xlink:href="#path-3"></use>
                    <g id="Topic/Chat/play" transform="translate(18.000000, 18.000000)" fill="#2582F3">
                        <g id="Triangle-2">
                            <path d="M54.4348323,29.7494644 C56.2597458,30.9924009 56.2660584,33.0032996 54.4348323,34.2505356 L22.8695155,55.7494644 C21.044602,56.9924009 19.5652174,56.2100423 19.5652174,54.0059907 L19.5652174,9.99400932 C19.5652174,7.78817888 21.0382894,7.00329963 22.8695155,8.25053562 L54.4348323,29.7494644 Z"></path>
                        </g>
                    </g>
                    <g id="Topic/Chat/play" transform="translate(18.000000, 18.000000)" fill="#2582F3">
                        <path d="M54.4348323,29.7494644 C56.2597458,30.9924009 56.2660584,33.0032996 54.4348323,34.2505356 L22.8695155,55.7494644 C21.044602,56.9924009 19.5652174,56.2100423 19.5652174,54.0059907 L19.5652174,9.99400932 C19.5652174,7.78817888 21.0382894,7.00329963 22.8695155,8.25053562 L54.4348323,29.7494644 Z" id="Triangle-2"></path>
                    </g>
                </g>
            </g>
        </g>
    </g>
</svg>