<?xml version="1.0" encoding="UTF-8"?>
<svg width="32px" height="32px" viewBox="0 0 32 32" version="1.1" xmlns="http://www.w3.org/2000/svg" xmlns:xlink="http://www.w3.org/1999/xlink">
    <!-- Generator: Sketch 41.2 (35397) - http://www.bohemiancoding.com/sketch -->
    <title>Publish/Text</title>
    <desc>Created with Sketch.</desc>
    <defs>
        <circle id="path-1" cx="39" cy="39" r="39"></circle>
        <filter x="-50%" y="-50%" width="200%" height="200%" filterUnits="objectBoundingBox" id="filter-2">
            <feOffset dx="0" dy="2" in="SourceAlpha" result="shadowOffsetOuter1"></feOffset>
            <feGaussianBlur stdDeviation="4" in="shadowOffsetOuter1" result="shadowBlurOuter1"></feGaussianBlur>
            <feColorMatrix values="0 0 0 0 0.694208471   0 0 0 0 0.0376631203   0 0 0 0 0.919589711  0 0 0 0.2 0" type="matrix" in="shadowBlurOuter1"></feColorMatrix>
        </filter>
    </defs>
    <g id="发布" stroke="none" stroke-width="1" fill="none" fill-rule="evenodd">
        <g id="首页" transform="translate(-53.000000, -498.000000)">
            <rect id="bg" fill="#F5F5F5" x="0" y="0" width="375" height="667"></rect>
            <g id="视频话题" transform="translate(0.000000, 502.000000)">
                <rect id="Rectangle" fill="#FFFFFF" x="0" y="0" width="375" height="314"></rect>
                <text id="为什么现在很多人喜欢去一些国外的景点去旅" font-family=".PingFang-SC-Medium, PingFang SC" font-size="16" font-weight="bold" line-spacing="22" fill="#000000">
                    <tspan x="12" y="27">为什么现在很多人喜欢去一些国外的景点去旅游</tspan>
                    <tspan x="12" y="49">而不是选择国内游？</tspan>
                </text>
            </g>
            <rect id="Rectangle-2" fill-opacity="0.6" fill="#000000" x="0" y="0" width="375" height="667"></rect>
            <g id="Group-2" transform="translate(0.000000, 415.000000)">
                <rect id="Rectangle-2" fill="#FFFFFF" x="0" y="0" width="375" height="252"></rect>
                <g id="文本" transform="translate(30.000000, 60.000000)">
                    <g id="Oval">
                        <use fill="black" fill-opacity="1" filter="url(#filter-2)" xlink:href="#path-1"></use>
                        <use fill="#D37FFA" fill-rule="evenodd" xlink:href="#path-1"></use>
                    </g>
                    <g id="Publish/Text" transform="translate(23.000000, 23.000000)" fill="#FFFFFF">
                        <g id="text">
                            <g transform="translate(2.000000, 2.000000)">
                                <path d="M16,3 L0.996534824,3 C0.439813137,3 0,3.44568129 0,3.99545703 L0,27.004543 C0,27.5447371 0.446163838,28 0.996534824,28 L27.0034652,28 C27.5601869,28 28,27.5543187 28,27.004543 L28,13 L26,13 L26,25.5016088 C26,25.7768626 25.7777346,26 25.4987259,26 L2.50127411,26 C2.22442806,26 2,25.7783691 2,25.5016088 L2,5.49839123 C2,5.22313735 2.22226536,5 2.50127411,5 L16,5 L16,3 Z" id="Combined-Shape"></path>
                                <circle id="Oval-2" cx="16" cy="4" r="1"></circle>
                                <circle id="Oval-2" cx="27" cy="13" r="1"></circle>
                                <path d="M24.5647959,2.17736185 L17.899755,8.84240275 L13.4109073,13.3312505 L11.3137463,15.4284114 C11.2312341,15.5109236 11.1464993,15.6637418 11.1218477,15.7723786 L10.4448086,18.7560088 C10.3857203,19.016404 10.5504166,19.1857188 10.814576,19.1257763 L13.7982063,18.4487372 C13.9044718,18.4246236 14.0608424,18.3381696 14.1421734,18.2568386 L16.2393344,16.1596776 L20.7281821,11.6708299 L27.393223,5.00578898 L24.5647959,2.17736185 Z M25.1304813,1.61167642 L26.1729857,0.569171999 C26.5620509,0.180106886 27.1909485,0.178205331 27.591182,0.578438886 L28.992146,1.97940283 C29.3863291,2.3735859 29.3863566,3.01265535 29.0014129,3.39759912 L27.9589085,4.44010355 L25.1304813,1.61167642 Z" id="Combined-Shape"></path>
                            </g>
                        </g>
                    </g>
                    <g id="Publish/Text" transform="translate(23.000000, 23.000000)" fill="#FFFFFF">
                        <g id="text" transform="translate(2.000000, 2.000000)">
                            <path d="M16,3 L0.996534824,3 C0.439813137,3 0,3.44568129 0,3.99545703 L0,27.004543 C0,27.5447371 0.446163838,28 0.996534824,28 L27.0034652,28 C27.5601869,28 28,27.5543187 28,27.004543 L28,13 L26,13 L26,25.5016088 C26,25.7768626 25.7777346,26 25.4987259,26 L2.50127411,26 C2.22442806,26 2,25.7783691 2,25.5016088 L2,5.49839123 C2,5.22313735 2.22226536,5 2.50127411,5 L16,5 L16,3 Z" id="Combined-Shape"></path>
                            <circle id="Oval-2" cx="16" cy="4" r="1"></circle>
                            <circle id="Oval-2" cx="27" cy="13" r="1"></circle>
                            <path d="M24.5647959,2.17736185 L17.899755,8.84240275 L13.4109073,13.3312505 L11.3137463,15.4284114 C11.2312341,15.5109236 11.1464993,15.6637418 11.1218477,15.7723786 L10.4448086,18.7560088 C10.3857203,19.016404 10.5504166,19.1857188 10.814576,19.1257763 L13.7982063,18.4487372 C13.9044718,18.4246236 14.0608424,18.3381696 14.1421734,18.2568386 L16.2393344,16.1596776 L20.7281821,11.6708299 L27.393223,5.00578898 L24.5647959,2.17736185 Z M25.1304813,1.61167642 L26.1729857,0.569171999 C26.5620509,0.180106886 27.1909485,0.178205331 27.591182,0.578438886 L28.992146,1.97940283 C29.3863291,2.3735859 29.3863566,3.01265535 29.0014129,3.39759912 L27.9589085,4.44010355 L25.1304813,1.61167642 Z" id="Combined-Shape"></path>
                        </g>
                    </g>
                </g>
            </g>
        </g>
    </g>
</svg>