<?xml version="1.0" encoding="UTF-8"?>
<svg width="10px" height="14px" viewBox="0 0 10 14" version="1.1" xmlns="http://www.w3.org/2000/svg" xmlns:xlink="http://www.w3.org/1999/xlink">
    <!-- Generator: Sketch 41.2 (35397) - http://www.bohemiancoding.com/sketch -->
    <title>音频</title>
    <desc>Created with Sketch.</desc>
    <defs></defs>
    <g id="首页" stroke="none" stroke-width="1" fill="none" fill-rule="evenodd">
        <g id="聊天界面-功能展示-表情" transform="translate(-290.000000, -274.000000)" fill="#FFFFFF">
            <g id="对话2" transform="translate(177.000000, 260.000000)">
                <g id="Group-8" transform="translate(0.000000, 3.000000)">
                    <g id="音频" transform="translate(113.000000, 11.000000)">
                        <path d="M3.15559061,13.8444094 C1.22426776,12.1936911 0,9.73981708 0,7 C0,4.26018292 1.22426776,1.8063089 3.15559061,0.155590606 L4.22017828,1.22017828 C2.55857263,2.59584955 1.5,4.67430333 1.5,7 C1.5,9.32569667 2.55857263,11.4041504 4.22017828,12.7798217 L3.15559061,13.8444094 Z M5.99979089,11.0002091 C4.78546312,10.0879931 4,8.63572394 4,7 C4,5.36427606 4.78546312,3.91200686 5.99979089,2.99979089 L7.07587856,4.07587856 C6.12649722,4.70185072 5.5,5.77776223 5.5,7 C5.5,8.22223777 6.12649722,9.29814928 7.07587856,9.92412144 L5.99979089,11.0002091 Z M8.58578644,8.41421356 C8.22385763,8.05228475 8,7.55228475 8,7 C8,6.44771525 8.22385763,5.94771525 8.58578644,5.58578644 L10,7 L8.58578644,8.41421356 Z" id="Combined-Shape"></path>
                    </g>
                </g>
            </g>
        </g>
    </g>
</svg>