<?xml version="1.0" encoding="UTF-8"?>
<svg width="24px" height="24px" viewBox="0 0 24 24" version="1.1" xmlns="http://www.w3.org/2000/svg" xmlns:xlink="http://www.w3.org/1999/xlink">
    <!-- Generator: Sketch 41.2 (35397) - http://www.bohemiancoding.com/sketch -->
    <title>Bottom Bar/icon/Focus</title>
    <desc>Created with Sketch.</desc>
    <defs>
        <path d="M23.4168869,11.0857143 C23.9325028,10.5142857 24.1616654,9.71428572 23.8752121,8.97142856 C23.6460495,8.22857142 23.0158524,7.71428571 22.3283645,7.65714287 L16.7711712,6.79999999 C16.5420086,6.74285712 16.3701367,6.62857141 16.2555554,6.39999999 L13.7347667,1.14285714 C13.3910228,0.457142846 12.7035349,0 11.9587565,0 C11.213978,0 10.5264902,0.400000003 10.1827463,1.14285714 L7.7192482,6.39999999 C7.60466689,6.62857141 7.43279493,6.79999999 7.20363233,6.79999999 L1.64643904,7.65714287 C0.901660569,7.77142858 0.328754034,8.28571429 0.0995914302,8.97142856 C-0.129571174,9.7142857 0.0423007667,10.5142857 0.557916638,11.0857143 L4.62555297,15.2 C4.79742493,15.3714286 4.85471557,15.6 4.79742491,15.8857143 L3.82348383,21.6571429 C3.70890253,22.4571429 3.9953558,23.2 4.68284361,23.6571428 C5.31304078,24.0571428 6.05781926,24.1142857 6.74530709,23.7714286 L11.7295939,21.0285714 C11.9014658,20.9142857 12.1306284,20.9142857 12.3025004,21.0285714 L17.2867871,23.7714286 C17.5732404,23.9428571 17.9169843,24 18.2034376,24 C18.6044721,24 19.0055067,23.8857143 19.3492506,23.6571428 C19.9794478,23.2 20.3231917,22.4571428 20.1513197,21.6571429 L19.1773787,15.8285714 C19.120088,15.6 19.2346693,15.3142857 19.4065413,15.1428571 L23.4168869,11.0857143 Z" id="path-1"></path>
        <mask id="mask-2" maskContentUnits="userSpaceOnUse" maskUnits="objectBoundingBox" x="0" y="0" width="24" height="24" fill="white">
            <use xlink:href="#path-1"></use>
        </mask>
    </defs>
    <g id="首页" stroke="none" stroke-width="1" fill="none" fill-rule="evenodd">
        <g transform="translate(-258.000000, -1302.000000)" id="Bottom-Bar/Topic" stroke-width="2" stroke="#B3B3B3">
            <g transform="translate(0.000000, 1279.000000)">
                <g id="关注" transform="translate(255.000000, 23.000000)">
                    <g id="Bottom-Bar/icon/Topic" transform="translate(3.000000, 0.000000)">
                        <g id="关注">
                            <use id="Shape" mask="url(#mask-2)" xlink:href="#path-1"></use>
                        </g>
                    </g>
                </g>
            </g>
        </g>
    </g>
</svg>