<?xml version="1.0" encoding="UTF-8"?>
<svg width="24px" height="24px" viewBox="0 0 24 24" version="1.1" xmlns="http://www.w3.org/2000/svg" xmlns:xlink="http://www.w3.org/1999/xlink">
    <!-- Generator: Sketch 41.2 (35397) - http://www.bohemiancoding.com/sketch -->
    <title>Bottom Bar/icon/Topic_click</title>
    <desc>Created with Sketch.</desc>
    <defs>
        <path d="M21.411223,19.4458334 C21.605441,19.2006818 21.7902835,18.9477642 21.9652089,18.6876222 C23.2501701,16.7766794 24,14.4759058 24,12 C24,5.372583 18.627417,0 12,0 C5.372583,0 0,5.372583 0,12 C0,18.627417 5.372583,24 12,24 C13.8691516,24 15.6384903,23.5726501 17.2156398,22.8103266" id="path-1"></path>
        <mask id="mask-2" maskContentUnits="userSpaceOnUse" maskUnits="objectBoundingBox" x="0" y="0" width="24" height="24" fill="white">
            <use xlink:href="#path-1"></use>
        </mask>
    </defs>
    <g id="首页" stroke="none" stroke-width="1" fill="none" fill-rule="evenodd">
        <g transform="translate(-24.000000, -1302.000000)" id="Bottom-Bar/Topic">
            <g transform="translate(0.000000, 1279.000000)">
                <g id="话题" transform="translate(22.000000, 23.000000)">
                    <g id="Bottom-Bar/icon/Topic" transform="translate(2.000000, 0.000000)">
                        <g id="话题00">
                            <use id="Oval" stroke="#2582F3" mask="url(#mask-2)" stroke-width="2" xlink:href="#path-1"></use>
                            <g id="Group-2" transform="translate(6.500000, 6.500000)" fill="#2582F3">
                                <path d="M6.86139814,8.39999962 L2.98824261,8.39999962 L2.60783306,9.81970741 C2.53498283,10.0915882 2.25189541,10.2519622 1.99296314,10.1825815 C1.72623009,10.1111106 1.56892111,9.83327629 1.64190723,9.56088837 L1.95296643,8.39999962 L0.509649515,8.39999962 C0.22817786,8.39999962 0,8.16806602 0,7.89999962 C0,7.62385724 0.227652788,7.39999962 0.509649515,7.39999962 L2.22091562,7.39999962 L3.07835299,4.19999981 L1.50964952,4.19999981 C1.22817786,4.19999981 1,3.96806622 1,3.69999981 C1,3.42385743 1.22765279,3.19999981 1.50964952,3.19999981 L3.34630218,3.19999981 L3.96628368,0.886197362 C4.0391339,0.614316621 4.32222133,0.453942565 4.58115359,0.523323256 C4.84788664,0.594794162 5.00519563,0.872628486 4.93220951,1.14501641 L4.38157836,3.19999981 L8.25473389,3.19999981 L8.79591281,1.18029259 C8.86876304,0.908411847 9.15185046,0.74803779 9.41078272,0.817418481 C9.67751578,0.888889387 9.83482476,1.16672371 9.76183864,1.43911163 L9.29001007,3.19999981 L10.4903505,3.19999981 C10.7718221,3.19999981 11,3.4319334 11,3.69999981 C11,3.97614218 10.7723472,4.19999981 10.4903505,4.19999981 L9.02206088,4.19999981 L8.16462351,7.39999962 L9.49035048,7.39999962 C9.77182214,7.39999962 10,7.63193321 10,7.89999962 C10,8.17614199 9.77234721,8.39999962 9.49035048,8.39999962 L7.89667432,8.39999962 L7.43746219,10.1138026 C7.36461196,10.3856834 7.08152454,10.5460574 6.82259227,10.4766767 C6.55585922,10.4052058 6.39855024,10.1273715 6.47153636,9.85498359 L6.86139814,8.39999962 Z M7.12934733,7.39999962 L3.25619181,7.39999962 L4.11362917,4.19999981 L7.9867847,4.19999981 L7.12934733,7.39999962 Z" id="Combined-Shape"></path>
                            </g>
                        </g>
                    </g>
                </g>
            </g>
        </g>
    </g>
</svg>